<svg width="276" height="127" viewBox="0 0 276 127" fill="none" xmlns="http://www.w3.org/2000/svg">
<path d="M73.302 74H72.93L82.199 52.3L82.54 52.145L90.352 74H87.717L85.299 67.18H76.247L73.302 74ZM81.238 55.648L76.371 66.87H85.206L81.238 55.648ZM94.6942 70.435C94.6942 72.0677 95.1282 73.1113 95.9962 73.566C96.4095 73.7727 96.9365 73.876 97.5772 73.876C98.8792 73.876 100.037 73.38 101.049 72.388C102.083 71.396 102.641 70.4763 102.723 69.629V58.5H104.893V71.799C104.893 72.3983 105.007 72.8633 105.234 73.194C105.482 73.504 105.73 73.6693 105.978 73.69L106.319 73.752H107.28V74H105.389C104.542 74 103.891 73.814 103.436 73.442C103.002 73.07 102.775 72.698 102.754 72.326L102.723 71.799V70.466C102.351 71.3547 101.69 72.1917 100.739 72.977C99.7885 73.7417 98.7448 74.124 97.6082 74.124C96.4922 74.124 95.5725 74.0207 94.8492 73.814C94.1465 73.5867 93.6402 73.2767 93.3302 72.884C92.7928 72.2433 92.5242 71.4167 92.5242 70.404V58.5H94.6942V70.435ZM108.687 58.748V58.5H109.338V55.4H111.508V58.5H116.251V58.748H111.508V70.032C111.508 71.3753 111.652 72.3467 111.942 72.946C112.252 73.5453 112.882 73.845 113.833 73.845C114.804 73.845 115.786 73.6487 116.778 73.256L116.871 73.504C115.837 73.8967 114.649 74.093 113.306 74.093C111.983 74.093 110.991 73.8243 110.33 73.287C109.668 72.729 109.338 71.6337 109.338 70.001V58.748H108.687ZM124.998 74.124C122.828 74.124 121.061 73.504 119.697 72.264C118.333 71.024 117.651 69.1123 117.651 66.529C117.651 63.9457 118.354 61.941 119.759 60.515C121.185 59.089 122.983 58.376 125.153 58.376C127.344 58.376 129.121 58.996 130.485 60.236C131.849 61.476 132.531 63.3877 132.531 65.971C132.531 68.5543 131.818 70.559 130.392 71.985C128.987 73.411 127.189 74.124 124.998 74.124ZM125.215 58.624C123.644 58.624 122.342 59.3267 121.309 60.732C120.276 62.1167 119.759 64.0593 119.759 66.56C119.759 69.04 120.234 70.8793 121.185 72.078C122.136 73.2767 123.396 73.876 124.967 73.876C126.538 73.876 127.84 73.1837 128.873 71.799C129.906 70.3937 130.423 68.451 130.423 65.971C130.423 63.4703 129.948 61.6207 128.997 60.422C128.046 59.2233 126.786 58.624 125.215 58.624ZM167.728 52.3C168.121 52.6927 168.317 53.199 168.317 53.819C168.317 54.3357 168.204 54.8627 167.976 55.4L160.66 74L160.319 74.155L156.227 61.166L151.174 74L150.833 74.155L143.951 52.3H146.586L152.135 70.652L156.072 60.67L153.437 52.3H156.072L161.621 70.652L167.604 55.4C167.832 54.8833 167.945 54.346 167.945 53.788C167.945 53.23 167.79 52.796 167.48 52.486L167.728 52.3ZM176.281 74.124C174.111 74.124 172.344 73.504 170.98 72.264C169.616 71.024 168.934 69.1123 168.934 66.529C168.934 63.9457 169.637 61.941 171.042 60.515C172.468 59.089 174.266 58.376 176.436 58.376C178.627 58.376 180.404 58.996 181.768 60.236C183.132 61.476 183.814 63.3877 183.814 65.971C183.814 68.5543 183.101 70.559 181.675 71.985C180.27 73.411 178.472 74.124 176.281 74.124ZM176.498 58.624C174.928 58.624 173.626 59.3267 172.592 60.732C171.559 62.1167 171.042 64.0593 171.042 66.56C171.042 69.04 171.518 70.8793 172.468 72.078C173.419 73.2767 174.68 73.876 176.25 73.876C177.821 73.876 179.123 73.1837 180.156 71.799C181.19 70.3937 181.706 68.451 181.706 65.971C181.706 63.4703 181.231 61.6207 180.28 60.422C179.33 59.2233 178.069 58.624 176.498 58.624ZM191.597 59.833V59.182C190.667 59.554 189.819 60.3083 189.055 61.445C188.29 62.561 187.887 63.615 187.846 64.607V74H185.676V58.5H187.846V63.429C188.176 62.2303 188.807 61.104 189.737 60.05C190.667 58.9753 191.721 58.4173 192.899 58.376H193.023C193.436 58.376 193.777 58.5207 194.046 58.81C194.335 59.0787 194.48 59.4197 194.48 59.833C194.48 60.2463 194.335 60.5873 194.046 60.856C193.777 61.1247 193.436 61.259 193.023 61.259C192.609 61.259 192.268 61.1247 192 60.856C191.731 60.5873 191.597 60.2463 191.597 59.833ZM200.753 74C198.935 74 197.788 73.5247 197.312 72.574C197.209 72.3673 197.157 72.1813 197.157 72.016V50.781H199.327V71.799C199.327 72.3983 199.441 72.8633 199.668 73.194C199.916 73.504 200.164 73.6693 200.412 73.69L200.753 73.752H201.714V74H200.753ZM203.446 66.808C203.446 64.1213 204.097 62.0443 205.399 60.577C206.701 59.1097 208.654 58.376 211.258 58.376C212.477 58.376 213.707 58.686 214.947 59.306V50.781H217.117V71.799C217.117 72.3983 217.231 72.8633 217.458 73.194C217.706 73.504 217.954 73.6693 218.202 73.69L218.543 73.752H219.504V74H217.613C216.766 74 216.115 73.814 215.66 73.442C215.226 73.07 214.999 72.698 214.978 72.326L214.947 71.799V71.303C214.554 72.0263 213.903 72.667 212.994 73.225C212.085 73.783 211.01 74.062 209.77 74.062C205.554 73.9587 203.446 71.5407 203.446 66.808ZM209.801 73.814C211.186 73.814 212.374 73.442 213.366 72.698C214.358 71.954 214.885 71.2203 214.947 70.497V59.585C213.48 58.9443 212.219 58.624 211.165 58.624C209.326 58.624 207.941 59.3473 207.011 60.794C206.081 62.22 205.616 64.2247 205.616 66.808C205.616 71.4787 207.011 73.814 209.801 73.814Z" fill="black"/>
<rect y="88" width="244" height="4" fill="#D9D9D9"/>
<rect x="83" y="98" width="161" height="3" fill="#131212"/>
<path d="M275.5 63.5C275.5 98.2492 244.431 126.5 206 126.5C167.569 126.5 136.5 98.2492 136.5 63.5C136.5 28.7508 167.569 0.5 206 0.5C244.431 0.5 275.5 28.7508 275.5 63.5Z" stroke="black"/>
</svg>
